<svg width="34" height="34" viewBox="0 0 34 34" fill="none" xmlns="http://www.w3.org/2000/svg">
  <rect x="1" y="1" width="32" height="32" rx="10" fill="#0B1220" stroke="#22D3EE" stroke-width="1.5"/>
  <circle cx="17" cy="17" r="9" fill="#22D3EE"/>
  <path
    d="M12.1 21.8V12.2h3.9c2.4 0 4 1.2 4 3.4 0 2.2-1.6 3.4-4 3.4h-1.5v2.8h-2.4Zm2.4-4.6h1.4c1.1 0 1.9-.5 1.9-1.6s-.8-1.6-1.9-1.6h-1.4v3.2Z"
    fill="white"
  />
  <path
    d="M20.8 21.8V12.2h2.3l2.5 4.3c.5.8 1 1.8 1.4 2.7h.1c-.2-1.2-.3-2.5-.3-3.9v-3.1h2.1v9.6h-2.3l-2.5-4.4c-.5-.8-1.1-1.8-1.5-2.8h-.1c.2 1.1.3 2.5.3 4v3.2h-2Z"
    fill="white"
  />
</svg>
